<mxfile host="app.diagrams.net" modified="2022-01-14T15:39:58.839Z" agent="5.0 (Macintosh)" etag="UKMxGIiCzgO5y6Vogta_" version="16.2.6" type="github">
  <diagram id="pXvwHER49jYVpRkO0h7i" name="Page-1">
    <mxGraphModel dx="1426" dy="820" grid="1" gridSize="10" guides="1" tooltips="1" connect="1" arrows="1" fold="1" page="1" pageScale="1" pageWidth="827" pageHeight="1169" math="0" shadow="0">
      <root>
        <mxCell id="0" />
        <mxCell id="1" parent="0" />
        <mxCell id="n6S3iAOClDmWSaDQxuV3-16" value="" style="rounded=0;whiteSpace=wrap;html=1;" vertex="1" parent="1">
          <mxGeometry x="40" y="120" width="760" height="350" as="geometry" />
        </mxCell>
        <mxCell id="n6S3iAOClDmWSaDQxuV3-24" value="" style="strokeWidth=1;shadow=0;dashed=0;align=center;html=1;shape=mxgraph.mockup.forms.rrect;rSize=0;strokeColor=#999999;fontSize=15;" vertex="1" parent="1">
          <mxGeometry x="40" y="90" width="760" height="30" as="geometry" />
        </mxCell>
        <mxCell id="n6S3iAOClDmWSaDQxuV3-25" value="Feed" style="strokeColor=inherit;fillColor=inherit;gradientColor=inherit;strokeWidth=1;shadow=0;dashed=0;align=center;html=1;shape=mxgraph.mockup.forms.rrect;rSize=0;fontSize=17;fontColor=#666666;" vertex="1" parent="n6S3iAOClDmWSaDQxuV3-24">
          <mxGeometry width="110" height="30" as="geometry" />
        </mxCell>
        <mxCell id="n6S3iAOClDmWSaDQxuV3-26" value="Kommunikationshistorie" style="strokeColor=inherit;fillColor=inherit;gradientColor=inherit;strokeWidth=1;shadow=0;dashed=0;align=center;html=1;shape=mxgraph.mockup.forms.rrect;rSize=0;fontSize=17;fontColor=#666666;" vertex="1" parent="n6S3iAOClDmWSaDQxuV3-24">
          <mxGeometry x="110" width="193.33" height="30" as="geometry" />
        </mxCell>
        <mxCell id="n6S3iAOClDmWSaDQxuV3-29" value="NÃ¤chster Schritt" style="strokeColor=inherit;fillColor=inherit;gradientColor=inherit;strokeWidth=1;shadow=0;dashed=0;align=center;html=1;shape=mxgraph.mockup.forms.rrect;rSize=0;fontSize=17;fontColor=#666666;" vertex="1" parent="n6S3iAOClDmWSaDQxuV3-24">
          <mxGeometry x="303.33" width="140" height="30" as="geometry" />
        </mxCell>
      </root>
    </mxGraphModel>
  </diagram>
</mxfile>
